<!-- sprite.svg -->
<svg xmlns="http://www.w3.org/2000/svg" style="display: none;">

  <!-- Icono 1: Edificio/Apartment -->
  <symbol id="icon-apartment" viewBox="0 -960 960 960">
    <path
      d="M400-80v-80h520v80H400Zm40-120q0-81 51-141.5T620-416v-25q0-17 11.5-28.5T660-481q17 0 28.5 11.5T700-441v25q77 14 128.5 74.5T880-200H440Zm105-81h228q-19-27-48.5-43.5T660-341q-36 0-66 16.5T545-281Zm114 0ZM40-440v-440h240v58l280-78 320 100v40q0 50-35 85t-85 35h-80v24q0 25-14.5 45.5T628-541L358-440H40Zm80-80h80v-280h-80v280Zm160 0h64l232-85q11-4 17.5-13.5T600-640h-71l-117 38-24-76 125-42h247q9 0 22.5-6.5T796-742l-238-74-278 76v220Z" />
  </symbol>

  <!-- Icono 2: Construcción/Build -->
  <symbol id="icon-construction" viewBox="0 -960 960 960">
    <path
      d="M120-40v-880h80v80h560v-80h80v880h-80v-80H200v80h-80Zm80-480h80v-160h240v160h240v-240H200v240Zm0 320h240v-160h240v160h80v-240H200v240Zm160-320h80v-80h-80v80Zm160 320h80v-80h-80v80ZM360-520h80-80Zm160 320h80-80Z" />
  </symbol>


  <!-- Icono 3: Seguridad/Shield -->
  <symbol id="icon-security" viewBox="0 -960 960 960">
    <path
      d="M722.5-297.5Q740-315 740-340t-17.5-42.5Q705-400 680-400t-42.5 17.5Q620-365 620-340t17.5 42.5Q655-280 680-280t42.5-17.5ZM680-160q31 0 57-14.5t42-38.5q-22-13-47-20t-52-7q-27 0-52 7t-47 20q16 24 42 38.5t57 14.5ZM480-80q-139-35-229.5-159.5T160-516v-244l320-120 320 120v227q-19-8-39-14.5t-41-9.5v-147l-240-90-240 90v188q0 47 12.5 94t35 89.5Q310-290 342-254t71 60q11 32 29 61t41 52q-1 0-1.5.5t-1.5.5Zm200 0q-83 0-141.5-58.5T480-280q0-83 58.5-141.5T680-480q83 0 141.5 58.5T880-280q0 83-58.5 141.5T680-80ZM480-494Z" />
  </symbol>

  <!-- Icono: Bookmark -->
  <symbol id="icon-bookmark" viewBox="0 -960 960 960">
    <path
      d="M263.72-96Q234-96 213-117.15T192-168v-624q0-29.7 21.16-50.85Q234.32-864 264.04-864h432.24Q726-864 747-842.85T768-792v624q0 29.7-21.16 50.85Q725.68-96 695.96-96H263.72Zm.28-72h432v-624h-72v312l-96-48-96 48v-312H264v624Zm0 0v-624 624Zm168-312 96-48 96 48-96-48-96 48Z" />
  </symbol>

  <!-- Icono: History/Reloj -->
  <symbol id="icon-history" viewBox="0 -960 960 960">
    <path
      d="M480-144q-140 0-238-98t-98-238h72q0 109 77.5 186.5T480-216q109 0 186.5-77.5T744-480q0-109-77.5-186.5T480-744q-62 0-114.55 25.6Q312.91-692.8 277-648h107v72H144v-240h72v130q46-60 114.5-95T480-816q70 0 131.13 26.6 61.14 26.6 106.4 71.87 45.27 45.26 71.87 106.4Q816-550 816-480t-26.6 131.13q-26.6 61.14-71.87 106.4-45.26 45.27-106.4 71.87Q550-144 480-144Zm100-200L444-480v-192h72v162l115 115-51 51Z" />
  </symbol>

  <!-- Icono: Backup/Copia -->
  <symbol id="icon-payment" viewBox="0 -960 960 960">
    <path
      d="M552-432q-50 0-85-35t-35-85q0-50 35-85t85-35q50 0 85 35t35 85q0 50-35 85t-85 35Zm-288 96q-29.7 0-50.85-21.17Q192-378.33 192-408.06v-288.22Q192-726 213.15-747T264-768h576q29.7 0 50.85 21.17Q912-725.67 912-695.94v288.22Q912-378 890.85-357T840-336H264Zm72-72h432q0-30 21.15-51.12 21.15-21.11 50.85-21.11V-624q-29.7 0-50.85-21.15Q768-666.3 768-696H336q0 30-21.15 51.12-21.15 21.11-50.85 21.11V-480q29.7 0 50.85 21.15Q336-437.7 336-408Zm456 216H120q-29.7 0-50.85-21.15Q48-234.3 48-264v-408h72v408h672v72ZM264-408v-288 288Z" />
  </symbol>

  <!-- Icono: Video/Film -->
  <symbol id="icon-devices" viewBox="0 -960 960 960">
    <path
      d="M336-144v-96H168q-29 0-50.5-21.16T96-312.04v-432.24Q96-774 117.5-795t50.5-21h624q29.7 0 50.85 21.15Q864-773.7 864-744v80h-72v-80H168v432h288v168H336Zm309.09-219q21.09-21 51-21T747-362.91q21 21.09 21 51T746.91-261q-21.09 21-51 21T645-261.09q-21-21.09-21-51T645.09-363ZM816-624q20.4 0 34.2 13.8Q864-596.4 864-576v384q0 20.4-13.8 34.2Q836.4-144 816-144H576q-20.4 0-34.2-13.8Q528-171.6 528-192v-384q0-20.4 13.8-34.2Q555.6-624 576-624h240Zm-154 62q-14 14-14 34t14 34q14 14 34 14t34-14q14-14 14-34t-14-34q-14-14-34-14t-34 14Zm119 335q35-35 35-85t-35-85q-35-35-85-35t-85 35q-35 35-35 85t35 85q35 35 85 35t85-35Z" />
  </symbol>

  <!-- Icono: Car/Coche -->
  <symbol id="icon-chair" viewBox="0 -960 960 960">
    <path
      d="M204.21-144q-15.21 0-25.71-10.35T168-180v-60q-50 0-85-35t-35-85v-168q0-50 35-85t85-35l24 2v-74q0-40 28-68t68-28h384q40 0 68 28t28 68v74l24-2q50 0 85 35t35 85v168q0 50-35 85t-85 35v60q0 15.3-10.29 25.65Q771.42-144 756.21-144t-25.71-10.35Q720-164.7 720-180v-60H240v60q0 15.3-10.29 25.65Q219.42-144 204.21-144ZM168-312h624q20.4 0 34.2-13.8Q840-339.6 840-360v-168q0-20.4-13.8-34.2Q812.4-576 792-576q-20.4 0-34.2 13.8Q744-548.4 744-528v144H216v-144q0-20.4-13.8-34.2Q188.4-576 168-576q-20.4 0-34.2 13.8Q120-548.4 120-528v168q0 20.4 13.8 34.2Q147.6-312 168-312Zm120-144h384v-72q0-17 5-35.5t19-35.5v-121q0-10.2-6.9-17.1-6.9-6.9-17.1-6.9H288q-10.2 0-17.1 6.9-6.9 6.9-6.9 17.1v121q14 17 19 35.5t5 35.5v72Zm192 0Zm0 144Zm0-72Z" />
  </symbol>

  <!-- Icono: Note/Nota -->
  <symbol id="icon-services" viewBox="0 -960 960 960">
    <path
      d="M684-48v-108H576v-72h108v-108h72v108h108v72H756v108h-72ZM216-216v-528 528Zm.37 72Q186-144 165-165.15 144-186.3 144-216v-528q0-29.7 21.15-50.85Q186.3-816 216-816h528q29.7 0 50.85 21.15Q816-773.7 816-744v333q-17-8-35-12.5t-37-6.5v-314H216v528h266q-2 18-1 36t5 36H216.37ZM349.5-298.29q10.5-10.29 10.5-25.5t-10.29-25.71q-10.29-10.5-25.5-10.5t-25.71 10.29q-10.5 10.29-10.5 25.5t10.29 25.71q10.29 10.5 25.5 10.5t25.71-10.29Zm0-156q10.5-10.29 10.5-25.5t-10.29-25.71q-10.29-10.5-25.5-10.5t-25.71 10.29q-10.5 10.29-10.5 25.5t10.29 25.71q10.29 10.5 25.5 10.5t25.71-10.29Zm0-156q10.5-10.29 10.5-25.5t-10.29-25.71q-10.29-10.5-25.5-10.5t-25.71 10.29q-10.5 10.29-10.5 25.5t10.29 25.71q10.29 10.5 25.5 10.5t25.71-10.29ZM432-444h240v-72H432v72Zm0-156h240v-72H432v72Zm0 312h68q9-20 21.5-38t27.5-34H432v72Z" />
  </symbol>

  <!-- Icono: User/Usuario -->
  <symbol id="icon-worker" viewBox="0 -960 960 960">
    <path
      d="M708-432v-84h-84v-72h84v-84h72v84h84v72h-84v84h-72Zm-426-90q-42-42-42-102t42-102q42-42 102-42t102 42q42 42 42 102t-42 102q-42 42-102 42t-102-42ZM96-192v-92q0-25.78 12.5-47.39T143-366q55-32 116-49t125-17q64 0 125 17t116 49q22 13 34.5 34.61T672-284v92H96Zm72-72h432v-20q0-6.47-3.03-11.76-3.02-5.3-7.97-8.24-47-27-99-41.5T384-360q-54 0-106 14.5T179-304q-4.95 2.94-7.98 8.24Q168-290.47 168-284v20Zm267-309.21q21-21.21 21-51T434.79-675q-21.21-21-51-21T333-674.79q-21 21.21-21 51T333.21-573q21.21 21 51 21T435-573.21ZM384-625Zm0 361Z" />
  </symbol>

  <!-- Icono: Settings/Ajustes -->
  <symbol id="icon-equipament" viewBox="0 -960 960 960">
    <path
      d="M624-624h120-120Zm-408 0h329-16 11-324Zm6-72h516l-48-48H270l-48 48Zm186 243 72-36 72 36v-171H408v171Zm169 309H216q-29.7 0-50.85-21.15Q144-186.3 144-216v-474q0-14.35 5.5-27.67 5.5-13.33 15.26-23.11L219-795q11-11 23.94-16 12.94-5 27.06-5h420q14.47 0 27.74 5Q731-806 741-795l54 54q11 10 16 23.33 5 13.32 5 27.67v167q-11.16-2.33-22.91-3.67Q781.34-528 769-528q-6 0-12.5.5T744-526v-98H624v145q-26 20-46.5 46.5T545-375l-65-33-144 72v-288H216v408h324q6 20 15.5 38t21.5 34Zm155 0v-108H624v-72h108v-108h72v108h108v72H804v108h-72Z" />
  </symbol>

  <!-- Icono: Dashboard -->
  <symbol id="icon-room" viewBox="0 -960 960 960">
    <path
      d="M144-144v-72h72v-528q0-29.7 21.15-50.85Q258.3-816 288-816h384q29.7 0 50.85 21.15Q744-773.7 744-744v528h72v72H144Zm528-72v-528H288v528h384ZM563.51-456q15.51 0 26-10.49t10.49-26Q600-508 589.51-518q-10.49-10-26-10T538-518q-10 10-10 25.51 0 15.51 10 26T563.51-456ZM288-744v528-528Z" />
  </symbol>

  <!-- Icono: Charts/Gráficos -->
  <symbol id="icon-charts" viewBox="0 -960 960 960">
    <path
      d="M192-216h144v-312H192v312Zm216 0h144v-528H408v528Zm216 0h144v-240H624v240Zm-504 72v-456h216v-216h288v288h216v384H120Z" />
  </symbol>


  <!-- Icono: Cube/Cubo (segundo) -->
  <symbol id="icon-package" viewBox="0 -960 960 960">
    <path
      d="M444-189v-270L216-591v270l228 132Zm72 0 228-131v-270L516-459v270Zm-72 84L180-258q-17.1-9.88-26.55-26.06Q144-300.23 144-320v-320q0-19.77 9.45-35.94Q162.9-692.12 180-702l264-153q17.13-10 36.07-10Q499-865 516-855l264 153q17.1 9.88 26.55 26.06Q816-659.77 816-640v320q0 19.77-9.45 35.94Q797.1-267.88 780-258L516-105q-17.13 10-36.07 10Q461-95 444-105Zm188-505 83-47-236-135-80 47 233 135Zm-152 88 82-47-237-134-80 46 235 135Z" />
  </symbol>

  <!-- Icono: Globe/Globo -->
  <symbol id="icon-table" viewBox="0 -960 960 960">
    <path
      d="m240-192 60-127q8-20 25-30.5t40-10.5h79v-168q-148-5-248-38.5T96-648q0-53 112-86.5T480-768q160 0 272 33.5T864-648q0 48-100.5 81.5T516-528v168h79q23 0 40 10.5t25 30.5l60 127h-72l-48-96H360l-48 96h-72Zm240-408q92 0 172.5-14T773-648q-40-21-120.5-34.5T480-696q-93 0-173 13.5T187-648q40 20 120 34t173 14Zm0-42Z" />
  </symbol>

  <symbol id="icon-logout" viewBox="0 -960 960 960">
    <path
      d="M216-144q-29.7 0-50.85-21.15Q144-186.3 144-216v-528q0-29.7 21.15-50.85Q186.3-816 216-816h264v72H216v528h264v72H216Zm432-168-51-51 81-81H384v-72h294l-81-81 51-51 168 168-168 168Z" />
  </symbol>

  <symbol id="icon-bell" viewBox="0 -960 960 960">

    <path
      d="M160-200v-60h80v-304q0-84 49.5-150.5T420-798v-22q0-25 17.5-42.5T480-880q25 0 42.5 17.5T540-820v22q81 17 130.5 83.5T720-564v304h80v60H160Zm320-302Zm0 422q-33 0-56.5-23.5T400-160h160q0 33-23.5 56.5T480-80ZM300-260h360v-304q0-75-52.5-127.5T480-744q-75 0-127.5 52.5T300-564v304Z" />
  </symbol>


</svg>